<?xml version="1.0" standalone="no"?><!DOCTYPE svg PUBLIC "-//W3C//DTD SVG 1.1//EN" "http://www.w3.org/Graphics/SVG/1.1/DTD/svg11.dtd">
<svg version="1.1" preserveAspectRatio="none" viewBox="0 0 24 24" style="fill:rgb(255, 255, 255);" xmlns="http://www.w3.org/2000/svg" xmlns:xlink="http://www.w3.org/1999/xlink">
<g style="fill:rgb(255, 255, 255);">
<path xmlns:default="http://www.w3.org/2000/svg" d="M17,4H7C5.34,4,4,5.34,4,7v10c0,1.66,1.34,3,3,3h5.54v-6.2h-2.08v-2.41h2.08V9.61  c-0.05-0.87,0.25-1.72,0.85-2.35c0.61-0.57,1.43-0.87,2.26-0.83c0.62-0.01,1.24,0.02,1.85,0.09v2.15h-1.26  c-0.36-0.06-0.73,0.05-1,0.29C15.06,9.21,14.98,9.52,15,9.83v1.54h2.38l-0.27,2.43H15V20h2c1.66,0,3-1.34,3-3V7  C20,5.34,18.66,4,17,4L17,4z" style="fill:rgb(255, 255, 255);d:path('M 17 4 H 7 C 5.34 4 4 5.34 4 7 v 10 c 0 1.66 1.34 3 3 3 h 5.54 v -6.2 h -2.08 v -2.41 h 2.08 V 9.61 c -0.05 -0.87 0.25 -1.72 0.85 -2.35 c 0.61 -0.57 1.43 -0.87 2.26 -0.83 c 0.62 -0.01 1.24 0.02 1.85 0.09 v 2.15 h -1.26 c -0.36 -0.06 -0.73 0.05 -1 0.29 C 15.06 9.21 14.98 9.52 15 9.83 v 1.54 h 2.38 l -0.27 2.43 H 15 V 20 h 2 c 1.66 0 3 -1.34 3 -3 V 7 C 20 5.34 18.66 4 17 4 L 17 4 Z');"/></g></svg>