<svg preserveAspectRatio="none" viewBox="0 0 1234.9 877.9" class="ng-element" data-id="45b6929373f94bdf82eb9b1234ba1afe" xmlns="http://www.w3.org/2000/svg"><style>.st0_1523536124699{opacity:.22;fill:#989898}.st1_1523536124699{opacity:.22;fill:#bcbbb8}.st2_1523536124699{opacity:.22;fill:#676767}.st3_1523536124699{opacity:.22;fill:#818181}.st4_1523536124699,.st5_1523536124699{fill:none;stroke:#f37224;stroke-width:4;stroke-miterlimit:10}.st5_1523536124699{fill-rule:evenodd;clip-rule:evenodd}.st6_1523536124699,.st7_1523536124699{fill:#fff;stroke:#f37224;stroke-width:4;stroke-miterlimit:10}.st7_1523536124699{fill:none;stroke-width:5.931}</style><path class="st0_1523536124699" d="M813.1 861.9c.8-1.6 2.1-2.8 3.9-3.6-.1-1.8.2-3.6 1.1-5.2-.3-2-.1-4.1.8-5.9-100.7 14.3-140.7-16.2-150.7-119.7V857c1 .8 1.8 1.8 2.4 2.9 1.3.8 2.4 2 3.1 3.3h1.2c1.6.1 3 .3 4.4.4 6.2.2 12.4.6 18.6.9 17.1-1.1 34.1-3.1 51.2-2.7 20.6.5 40.9 1.8 61.5 1.8.7-.6 1.5-1.2 2.5-1.7z" vector-effect="non-scaling-stroke" style="height:auto;overflow-x:visible;overflow-y:visible;width:auto;perspective-origin:0 0;transform-origin:0 0;d:path('M 813.1 861.9 c 0.8 -1.6 2.1 -2.8 3.9 -3.6 c -0.1 -1.8 0.2 -3.6 1.1 -5.2 c -0.3 -2 -0.1 -4.1 0.8 -5.9 C 718.2 861.5 678.2 831 668.2 727.5 V 857 c 1 0.8 1.8 1.8 2.4 2.9 c 1.3 0.8 2.4 2 3.1 3.3 c 0.4 0 0.8 0 1.2 0 c 1.6 0.1 3 0.3 4.4 0.4 c 6.2 0.2 12.4 0.6 18.6 0.9 c 17.1 -1.1 34.1 -3.1 51.2 -2.7 c 20.6 0.5 40.9 1.8 61.5 1.8 C 811.3 863 812.1 862.4 813.1 861.9 Z')" opacity=".22" pointer-events="all" fill="#989898"/><path class="st1_1523536124699" d="M450.6 857.6h-65.8c-19.2 0-34.8-15.7-34.8-34.8 0-15.8 10.5-28.9 25.3-33.5-12.5 18.8 8.9 63.9 75.3 68.3z" vector-effect="non-scaling-stroke" style="height:auto;overflow-x:visible;overflow-y:visible;width:auto;perspective-origin:0 0;transform-origin:0 0;d:path('M 450.6 857.6 l -65.8 0 c -19.2 0 -34.8 -15.7 -34.8 -34.8 v 0 c 0 -15.8 10.5 -28.9 25.3 -33.5 C 362.8 808.1 384.2 853.2 450.6 857.6 Z')" opacity=".22" pointer-events="all" fill="#bcbbb8"/><path class="st2_1523536124699" d="M413.9 667.1v119.7c.4-.1.9-.1 1.4-.1h.2c3.7-1.2 8.2-1.1 12.4-.4 2.4.4 4.9.7 7.3 1 1.4-1.2 3.3-2 5.7-2 2.1 0 3.9.6 5.3 1.6 16.3-2.2 33.3.7 49.7 1.2 7.6-.3 15.2-.5 22.8-.5 12 0 24-.8 36-1-68.6-21.6-125.6-64.2-140.8-119.5z" vector-effect="non-scaling-stroke" style="height:auto;overflow-x:visible;overflow-y:visible;width:auto;perspective-origin:0 0;transform-origin:0 0;d:path('M 413.9 667.1 v 119.7 c 0.4 -0.1 0.9 -0.1 1.4 -0.1 c 0.1 0 0.1 0 0.2 0 c 3.7 -1.2 8.2 -1.1 12.4 -0.4 c 2.4 0.4 4.9 0.7 7.3 1 c 1.4 -1.2 3.3 -2 5.7 -2 c 2.1 0 3.9 0.6 5.3 1.6 c 16.3 -2.2 33.3 0.7 49.7 1.2 c 7.6 -0.3 15.2 -0.5 22.8 -0.5 c 12 0 24 -0.8 36 -1 C 486.1 765 429.1 722.4 413.9 667.1 Z')" opacity=".22" pointer-events="all" fill="#676767"/><path class="st3_1523536124699" d="M349.7 841.4h-295c-15.8 0-28.7-12.9-28.7-28.7V362.9c0-15.8 12.9-28.7 28.7-28.7-.1 258.5 101.8 410.7 302 460.4-10.3 13.5-10.3 29.7-7 46.8z" vector-effect="non-scaling-stroke" style="height:auto;overflow-x:visible;overflow-y:visible;width:auto;perspective-origin:0 0;transform-origin:0 0;d:path('M 349.7 841.4 l -295 0 c -15.8 0 -28.7 -12.9 -28.7 -28.7 V 362.9 c 0 -15.8 12.9 -28.7 28.7 -28.7 c -0.1 258.5 101.8 410.7 302 460.4 C 346.4 808.1 346.4 824.3 349.7 841.4 Z')" opacity=".22" pointer-events="all" fill="#818181"/><path class="st4_1523536124699" vector-effect="non-scaling-stroke" style="height:auto;overflow-x:visible;overflow-y:visible;width:auto;perspective-origin:0 0;transform-origin:0 0" pointer-events="all" fill="none" stroke="#f37224" stroke-miterlimit="10" stroke-width="4" d="M305.7 332.4h137.8V41.3l-137.8 86.4v131.5"/><path class="st4_1523536124699" vector-effect="non-scaling-stroke" style="height:auto;overflow-x:visible;overflow-y:visible;width:auto;perspective-origin:0 0;transform-origin:0 0" pointer-events="all" fill="none" stroke="#f37224" stroke-miterlimit="10" stroke-width="4" d="M425.8 52.4V28.8L324.5 92.4V116"/><circle class="st4_1523536124699" cx="359.7" cy="160.7" r="18.5" vector-effect="non-scaling-stroke" style="height:auto;overflow-x:visible;overflow-y:visible;width:auto;perspective-origin:0 0;transform-origin:0 0;cx:359.7px;cy:160.7px;r:18.5px" pointer-events="all" fill="none" stroke="#f37224" stroke-miterlimit="10" stroke-width="4"/><circle class="st4_1523536124699" cx="359.7" cy="214.9" r="18.5" vector-effect="non-scaling-stroke" style="height:auto;overflow-x:visible;overflow-y:visible;width:auto;perspective-origin:0 0;transform-origin:0 0;cx:359.7px;cy:214.9px;r:18.5px" pointer-events="all" fill="none" stroke="#f37224" stroke-miterlimit="10" stroke-width="4"/><circle class="st4_1523536124699" cx="359.7" cy="269" r="18.5" vector-effect="non-scaling-stroke" style="height:auto;overflow-x:visible;overflow-y:visible;width:auto;perspective-origin:0 0;transform-origin:0 0;cx:359.7px;cy:269px;r:18.5px" pointer-events="all" fill="none" stroke="#f37224" stroke-miterlimit="10" stroke-width="4"/><path class="st4_1523536124699" d="M343.2 331.4c-1.2-2.5-1.9-5.3-1.9-8.2 0-10.2 8.3-18.5 18.5-18.5s18.5 8.3 18.5 18.5c0 3.1-.7 5.9-2.1 8.5" vector-effect="non-scaling-stroke" style="height:auto;overflow-x:visible;overflow-y:visible;width:auto;perspective-origin:0 0;transform-origin:0 0;d:path('M 343.2 331.4 c -1.2 -2.5 -1.9 -5.3 -1.9 -8.2 c 0 -10.2 8.3 -18.5 18.5 -18.5 s 18.5 8.3 18.5 18.5 c 0 3.1 -0.7 5.9 -2.1 8.5')" pointer-events="all" fill="none" stroke="#f37224" stroke-miterlimit="10" stroke-width="4"/><path class="st5_1523536124699" vector-effect="non-scaling-stroke" style="height:auto;overflow-x:visible;overflow-y:visible;width:auto;perspective-origin:0 0;transform-origin:0 0" pointer-events="all" clip-rule="evenodd" fill="none" fill-rule="evenodd" stroke="#f37224" stroke-miterlimit="10" stroke-width="4" d="M208.7 311.8v-35.9M318.4 277.8v34.7M300.3 312.5v-34.7M133.5 279.5v32.2"/><path class="st4_1523536124699" vector-effect="non-scaling-stroke" style="height:auto;overflow-x:visible;overflow-y:visible;width:auto;perspective-origin:0 0;transform-origin:0 0" pointer-events="all" fill="none" stroke="#f37224" stroke-miterlimit="10" stroke-width="4" d="M466.2 332.2V193.4l140 86.5V602M480.6 202.2v-21.4l112.7 69.6v21.5"/><path class="st4_1523536124699" d="M352.7 842.4h-297c-15.9 0-28.9-13-28.9-28.9V361.1c0-15.9 13-28.9 28.9-28.9h436.9c15.9 0 28.9 13 28.9 28.9v240.5" vector-effect="non-scaling-stroke" style="height:auto;overflow-x:visible;overflow-y:visible;width:auto;perspective-origin:0 0;transform-origin:0 0;d:path('M 352.7 842.4 H 55.7 c -15.9 0 -28.9 -13 -28.9 -28.9 V 361.1 c 0 -15.9 13 -28.9 28.9 -28.9 h 436.9 c 15.9 0 28.9 13 28.9 28.9 v 240.5')" pointer-events="all" fill="none" stroke="#f37224" stroke-miterlimit="10" stroke-width="4"/><path class="st4_1523536124699" vector-effect="non-scaling-stroke" style="height:auto;overflow-x:visible;overflow-y:visible;width:auto;perspective-origin:0 0;transform-origin:0 0" pointer-events="all" fill="none" stroke="#f37224" stroke-miterlimit="10" stroke-width="4" d="M677 565.7v36.4M677 515v38.2M677 467.6v34.9"/><path class="st4_1523536124699" d="M628.2 454.9c.8-12 10.9-21.5 23.1-21.5h2.6c11.6 0 21.3 8.7 22.9 19.9" vector-effect="non-scaling-stroke" style="height:auto;overflow-x:visible;overflow-y:visible;width:auto;perspective-origin:0 0;transform-origin:0 0;d:path('M 628.2 454.9 c 0.8 -12 10.9 -21.5 23.1 -21.5 h 2.6 c 11.6 0 21.3 8.7 22.9 19.9')" pointer-events="all" fill="none" stroke="#f37224" stroke-miterlimit="10" stroke-width="4"/><path class="st4_1523536124699" vector-effect="non-scaling-stroke" style="height:auto;overflow-x:visible;overflow-y:visible;width:auto;perspective-origin:0 0;transform-origin:0 0" pointer-events="all" fill="none" stroke="#f37224" stroke-miterlimit="10" stroke-width="4" d="M628.1 503.5v-35.9M628.1 553.2v-39.3M628.1 602.1v-37M766.4 566.3v38.1M766.4 516v36.4M766.4 467.6v34.2"/><path class="st4_1523536124699" d="M717.7 453.9c1.3-11.5 11.1-20.5 23-20.5h2.6c11.7 0 21.5 8.8 22.9 20.2" vector-effect="non-scaling-stroke" style="height:auto;overflow-x:visible;overflow-y:visible;width:auto;perspective-origin:0 0;transform-origin:0 0;d:path('M 717.7 453.9 c 1.3 -11.5 11.1 -20.5 23 -20.5 h 2.6 c 11.7 0 21.5 8.8 22.9 20.2')" pointer-events="all" fill="none" stroke="#f37224" stroke-miterlimit="10" stroke-width="4"/><path class="st4_1523536124699" vector-effect="non-scaling-stroke" style="height:auto;overflow-x:visible;overflow-y:visible;width:auto;perspective-origin:0 0;transform-origin:0 0" pointer-events="all" fill="none" stroke="#f37224" stroke-miterlimit="10" stroke-width="4" d="M717.5 501.8v-34.2M717.5 552.4v-36.7M717.5 604.4v-38.1"/><path class="st6_1523536124699" d="M481.7 460.5H65.8c-3.4 0-6.1-2.8-6.1-6.1v-.5c0-3.4 2.8-6.1 6.1-6.1h415.9c3.4 0 6.1 2.8 6.1 6.1v.5c0 3.3-2.8 6.1-6.1 6.1z" vector-effect="non-scaling-stroke" style="height:auto;overflow-x:visible;overflow-y:visible;width:auto;perspective-origin:0 0;transform-origin:0 0;d:path('M 481.7 460.5 H 65.8 c -3.4 0 -6.1 -2.8 -6.1 -6.1 v -0.5 c 0 -3.4 2.8 -6.1 6.1 -6.1 h 415.9 c 3.4 0 6.1 2.8 6.1 6.1 v 0.5 C 487.8 457.7 485 460.5 481.7 460.5 Z')" pointer-events="all" fill="#fff" stroke="#f37224" stroke-miterlimit="10" stroke-width="4"/><path class="st6_1523536124699" d="M481.7 422.5H65.8c-3.4 0-6.1-2.8-6.1-6.1v-.5c0-3.4 2.8-6.1 6.1-6.1h415.9c3.4 0 6.1 2.8 6.1 6.1v.5c0 3.3-2.8 6.1-6.1 6.1z" vector-effect="non-scaling-stroke" style="height:auto;overflow-x:visible;overflow-y:visible;width:auto;perspective-origin:0 0;transform-origin:0 0;d:path('M 481.7 422.5 H 65.8 c -3.4 0 -6.1 -2.8 -6.1 -6.1 v -0.5 c 0 -3.4 2.8 -6.1 6.1 -6.1 h 415.9 c 3.4 0 6.1 2.8 6.1 6.1 v 0.5 C 487.8 419.7 485 422.5 481.7 422.5 Z')" pointer-events="all" fill="#fff" stroke="#f37224" stroke-miterlimit="10" stroke-width="4"/><path class="st4_1523536124699" d="M628.1 601.6H459.9c-8.2 0-14.9 6.7-14.9 14.9v23.2h-14.8c-8.2 0-14.9 6.7-14.9 14.9v131.7" vector-effect="non-scaling-stroke" style="height:auto;overflow-x:visible;overflow-y:visible;width:auto;perspective-origin:0 0;transform-origin:0 0;d:path('M 628.1 601.6 H 459.9 c -8.2 0 -14.9 6.7 -14.9 14.9 v 23.2 h -14.8 c -8.2 0 -14.9 6.7 -14.9 14.9 v 131.7')" pointer-events="all" fill="none" stroke="#f37224" stroke-miterlimit="10" stroke-width="4"/><path class="st4_1523536124699" vector-effect="non-scaling-stroke" style="height:auto;overflow-x:visible;overflow-y:visible;width:auto;perspective-origin:0 0;transform-origin:0 0" pointer-events="all" fill="none" stroke="#f37224" stroke-miterlimit="10" stroke-width="4" d="M677 601.6h-48.9M717.5 601.6H677M766.4 601.6h-48.9"/><path class="st4_1523536124699" d="M821.8 662.4v-7.7c0-8.2-6.7-14.9-14.9-14.9h-14.8v-23.2c0-8.2-6.7-14.9-14.9-14.9h-10.9" vector-effect="non-scaling-stroke" style="height:auto;overflow-x:visible;overflow-y:visible;width:auto;perspective-origin:0 0;transform-origin:0 0;d:path('M 821.8 662.4 v -7.7 c 0 -8.2 -6.7 -14.9 -14.9 -14.9 h -14.8 v -23.2 c 0 -8.2 -6.7 -14.9 -14.9 -14.9 h -10.9')" pointer-events="all" fill="none" stroke="#f37224" stroke-miterlimit="10" stroke-width="4"/><path class="st4_1523536124699" d="M497.7 635.6H473c-6.2 0-11.2-5-11.2-11.2v-.8c0-6.2 5-11.2 11.2-11.2h24.7c6.2 0 11.2 5 11.2 11.2v.8c0 6.2-5 11.2-11.2 11.2z" vector-effect="non-scaling-stroke" style="height:auto;overflow-x:visible;overflow-y:visible;width:auto;perspective-origin:0 0;transform-origin:0 0;d:path('M 497.7 635.6 H 473 c -6.2 0 -11.2 -5 -11.2 -11.2 v -0.8 c 0 -6.2 5 -11.2 11.2 -11.2 h 24.7 c 6.2 0 11.2 5 11.2 11.2 v 0.8 C 508.9 630.6 503.9 635.6 497.7 635.6 Z')" pointer-events="all" fill="none" stroke="#f37224" stroke-miterlimit="10" stroke-width="4"/><path class="st6_1523536124699" d="M88.5 569.9h-8.1c-10.7 0-19.5-8.8-19.5-19.5v-1.5c0-10.7 8.8-19.5 19.5-19.5h8.1c10.7 0 19.5 8.8 19.5 19.5v1.5c0 10.7-8.8 19.5-19.5 19.5z" vector-effect="non-scaling-stroke" style="height:auto;overflow-x:visible;overflow-y:visible;width:auto;perspective-origin:0 0;transform-origin:0 0;d:path('M 88.5 569.9 h -8.1 c -10.7 0 -19.5 -8.8 -19.5 -19.5 v -1.5 c 0 -10.7 8.8 -19.5 19.5 -19.5 h 8.1 c 10.7 0 19.5 8.8 19.5 19.5 v 1.5 C 108 561.1 99.2 569.9 88.5 569.9 Z')" pointer-events="all" fill="#fff" stroke="#f37224" stroke-miterlimit="10" stroke-width="4"/><path class="st4_1523536124699" d="M184 569.9h-8.1c-10.7 0-19.5-8.8-19.5-19.5v-1.5c0-10.7 8.8-19.5 19.5-19.5h8.1c10.7 0 19.5 8.8 19.5 19.5v1.5c0 10.7-8.8 19.5-19.5 19.5z" vector-effect="non-scaling-stroke" style="height:auto;overflow-x:visible;overflow-y:visible;width:auto;perspective-origin:0 0;transform-origin:0 0;d:path('M 184 569.9 h -8.1 c -10.7 0 -19.5 -8.8 -19.5 -19.5 v -1.5 c 0 -10.7 8.8 -19.5 19.5 -19.5 h 8.1 c 10.7 0 19.5 8.8 19.5 19.5 v 1.5 C 203.5 561.1 194.7 569.9 184 569.9 Z')" pointer-events="all" fill="none" stroke="#f37224" stroke-miterlimit="10" stroke-width="4"/><path class="st4_1523536124699" d="M279.5 569.9h-8.1c-10.7 0-19.5-8.8-19.5-19.5v-1.5c0-10.7 8.8-19.5 19.5-19.5h8.1c10.7 0 19.5 8.8 19.5 19.5v1.5c-.1 10.7-8.8 19.5-19.5 19.5z" vector-effect="non-scaling-stroke" style="height:auto;overflow-x:visible;overflow-y:visible;width:auto;perspective-origin:0 0;transform-origin:0 0;d:path('M 279.5 569.9 h -8.1 c -10.7 0 -19.5 -8.8 -19.5 -19.5 v -1.5 c 0 -10.7 8.8 -19.5 19.5 -19.5 h 8.1 c 10.7 0 19.5 8.8 19.5 19.5 v 1.5 C 298.9 561.1 290.2 569.9 279.5 569.9 Z')" pointer-events="all" fill="none" stroke="#f37224" stroke-miterlimit="10" stroke-width="4"/><path class="st4_1523536124699" d="M374.9 569.9h-8.1c-10.7 0-19.5-8.8-19.5-19.5v-1.5c0-10.7 8.8-19.5 19.5-19.5h8.1c10.7 0 19.5 8.8 19.5 19.5v1.5c0 10.7-8.7 19.5-19.5 19.5z" vector-effect="non-scaling-stroke" style="height:auto;overflow-x:visible;overflow-y:visible;width:auto;perspective-origin:0 0;transform-origin:0 0;d:path('M 374.9 569.9 h -8.1 c -10.7 0 -19.5 -8.8 -19.5 -19.5 v -1.5 c 0 -10.7 8.8 -19.5 19.5 -19.5 h 8.1 c 10.7 0 19.5 8.8 19.5 19.5 v 1.5 C 394.4 561.1 385.7 569.9 374.9 569.9 Z')" pointer-events="all" fill="none" stroke="#f37224" stroke-miterlimit="10" stroke-width="4"/><path class="st6_1523536124699" d="M88.5 644.2h-8.1c-10.7 0-19.5-8.8-19.5-19.5v-1.5c0-10.7 8.8-19.5 19.5-19.5h8.1c10.7 0 19.5 8.8 19.5 19.5v1.5c0 10.7-8.8 19.5-19.5 19.5z" vector-effect="non-scaling-stroke" style="height:auto;overflow-x:visible;overflow-y:visible;width:auto;perspective-origin:0 0;transform-origin:0 0;d:path('M 88.5 644.2 h -8.1 c -10.7 0 -19.5 -8.8 -19.5 -19.5 v -1.5 c 0 -10.7 8.8 -19.5 19.5 -19.5 h 8.1 c 10.7 0 19.5 8.8 19.5 19.5 v 1.5 C 108 635.4 99.2 644.2 88.5 644.2 Z')" pointer-events="all" fill="#fff" stroke="#f37224" stroke-miterlimit="10" stroke-width="4"/><path class="st4_1523536124699" d="M184 644.2h-8.1c-10.7 0-19.5-8.8-19.5-19.5v-1.5c0-10.7 8.8-19.5 19.5-19.5h8.1c10.7 0 19.5 8.8 19.5 19.5v1.5c0 10.7-8.8 19.5-19.5 19.5z" vector-effect="non-scaling-stroke" style="height:auto;overflow-x:visible;overflow-y:visible;width:auto;perspective-origin:0 0;transform-origin:0 0;d:path('M 184 644.2 h -8.1 c -10.7 0 -19.5 -8.8 -19.5 -19.5 v -1.5 c 0 -10.7 8.8 -19.5 19.5 -19.5 h 8.1 c 10.7 0 19.5 8.8 19.5 19.5 v 1.5 C 203.5 635.4 194.7 644.2 184 644.2 Z')" pointer-events="all" fill="none" stroke="#f37224" stroke-miterlimit="10" stroke-width="4"/><path class="st4_1523536124699" d="M279.5 644.2h-8.1c-10.7 0-19.5-8.8-19.5-19.5v-1.5c0-10.7 8.8-19.5 19.5-19.5h8.1c10.7 0 19.5 8.8 19.5 19.5v1.5c-.1 10.7-8.8 19.5-19.5 19.5z" vector-effect="non-scaling-stroke" style="height:auto;overflow-x:visible;overflow-y:visible;width:auto;perspective-origin:0 0;transform-origin:0 0;d:path('M 279.5 644.2 h -8.1 c -10.7 0 -19.5 -8.8 -19.5 -19.5 v -1.5 c 0 -10.7 8.8 -19.5 19.5 -19.5 h 8.1 c 10.7 0 19.5 8.8 19.5 19.5 v 1.5 C 298.9 635.4 290.2 644.2 279.5 644.2 Z')" pointer-events="all" fill="none" stroke="#f37224" stroke-miterlimit="10" stroke-width="4"/><path class="st4_1523536124699" d="M374.9 644.2h-8.1c-10.7 0-19.5-8.8-19.5-19.5v-1.5c0-10.7 8.8-19.5 19.5-19.5h8.1c10.7 0 19.5 8.8 19.5 19.5v1.5c0 10.7-8.7 19.5-19.5 19.5z" vector-effect="non-scaling-stroke" style="height:auto;overflow-x:visible;overflow-y:visible;width:auto;perspective-origin:0 0;transform-origin:0 0;d:path('M 374.9 644.2 h -8.1 c -10.7 0 -19.5 -8.8 -19.5 -19.5 v -1.5 c 0 -10.7 8.8 -19.5 19.5 -19.5 h 8.1 c 10.7 0 19.5 8.8 19.5 19.5 v 1.5 C 394.4 635.4 385.7 644.2 374.9 644.2 Z')" pointer-events="all" fill="none" stroke="#f37224" stroke-miterlimit="10" stroke-width="4"/><path class="st4_1523536124699" d="M470.4 569.9h-8.1c-10.7 0-19.5-8.8-19.5-19.5v-1.5c0-10.7 8.8-19.5 19.5-19.5h8.1c10.7 0 19.5 8.8 19.5 19.5v1.5c0 10.7-8.8 19.5-19.5 19.5z" vector-effect="non-scaling-stroke" style="height:auto;overflow-x:visible;overflow-y:visible;width:auto;perspective-origin:0 0;transform-origin:0 0;d:path('M 470.4 569.9 h -8.1 c -10.7 0 -19.5 -8.8 -19.5 -19.5 v -1.5 c 0 -10.7 8.8 -19.5 19.5 -19.5 h 8.1 c 10.7 0 19.5 8.8 19.5 19.5 v 1.5 C 489.9 561.1 481.1 569.9 470.4 569.9 Z')" pointer-events="all" fill="none" stroke="#f37224" stroke-miterlimit="10" stroke-width="4"/><path class="st4_1523536124699" d="M563.9 635.6h-24.7c-6.2 0-11.2-5-11.2-11.2v-.8c0-6.2 5-11.2 11.2-11.2h24.7c6.2 0 11.2 5 11.2 11.2v.8c0 6.2-5.1 11.2-11.2 11.2z" vector-effect="non-scaling-stroke" style="height:auto;overflow-x:visible;overflow-y:visible;width:auto;perspective-origin:0 0;transform-origin:0 0;d:path('M 563.9 635.6 h -24.7 c -6.2 0 -11.2 -5 -11.2 -11.2 v -0.8 c 0 -6.2 5 -11.2 11.2 -11.2 h 24.7 c 6.2 0 11.2 5 11.2 11.2 v 0.8 C 575.1 630.6 570 635.6 563.9 635.6 Z')" pointer-events="all" fill="none" stroke="#f37224" stroke-miterlimit="10" stroke-width="4"/><path class="st4_1523536124699" d="M630 635.6h-24.7c-6.2 0-11.2-5-11.2-11.2v-.8c0-6.2 5-11.2 11.2-11.2H630c6.2 0 11.2 5 11.2 11.2v.8c0 6.2-5 11.2-11.2 11.2z" vector-effect="non-scaling-stroke" style="height:auto;overflow-x:visible;overflow-y:visible;width:auto;perspective-origin:0 0;transform-origin:0 0;d:path('M 630 635.6 h -24.7 c -6.2 0 -11.2 -5 -11.2 -11.2 v -0.8 c 0 -6.2 5 -11.2 11.2 -11.2 H 630 c 6.2 0 11.2 5 11.2 11.2 v 0.8 C 641.2 630.6 636.2 635.6 630 635.6 Z')" pointer-events="all" fill="none" stroke="#f37224" stroke-miterlimit="10" stroke-width="4"/><path class="st4_1523536124699" d="M696.2 635.6h-24.7c-6.2 0-11.2-5-11.2-11.2v-.8c0-6.2 5-11.2 11.2-11.2h24.7c6.2 0 11.2 5 11.2 11.2v.8c0 6.2-5 11.2-11.2 11.2z" vector-effect="non-scaling-stroke" style="height:auto;overflow-x:visible;overflow-y:visible;width:auto;perspective-origin:0 0;transform-origin:0 0;d:path('M 696.2 635.6 h -24.7 c -6.2 0 -11.2 -5 -11.2 -11.2 v -0.8 c 0 -6.2 5 -11.2 11.2 -11.2 h 24.7 c 6.2 0 11.2 5 11.2 11.2 v 0.8 C 707.4 630.6 702.4 635.6 696.2 635.6 Z')" pointer-events="all" fill="none" stroke="#f37224" stroke-miterlimit="10" stroke-width="4"/><path class="st4_1523536124699" d="M762.4 635.6h-24.7c-6.2 0-11.2-5-11.2-11.2v-.8c0-6.2 5-11.2 11.2-11.2h24.7c6.2 0 11.2 5 11.2 11.2v.8c0 6.2-5.1 11.2-11.2 11.2z" vector-effect="non-scaling-stroke" style="height:auto;overflow-x:visible;overflow-y:visible;width:auto;perspective-origin:0 0;transform-origin:0 0;d:path('M 762.4 635.6 h -24.7 c -6.2 0 -11.2 -5 -11.2 -11.2 v -0.8 c 0 -6.2 5 -11.2 11.2 -11.2 h 24.7 c 6.2 0 11.2 5 11.2 11.2 v 0.8 C 773.6 630.6 768.5 635.6 762.4 635.6 Z')" pointer-events="all" fill="none" stroke="#f37224" stroke-miterlimit="10" stroke-width="4"/><path class="st4_1523536124699" d="M675.7 466.8h-46.3c-3.3 0-6-2.7-6-6v-.5c0-3.3 2.7-6 6-6h46.3c3.3 0 6 2.7 6 6v.5c.1 3.2-2.6 6-6 6z" vector-effect="non-scaling-stroke" style="height:auto;overflow-x:visible;overflow-y:visible;width:auto;perspective-origin:0 0;transform-origin:0 0;d:path('M 675.7 466.8 h -46.3 c -3.3 0 -6 -2.7 -6 -6 v -0.5 c 0 -3.3 2.7 -6 6 -6 h 46.3 c 3.3 0 6 2.7 6 6 v 0.5 C 681.8 464 679.1 466.8 675.7 466.8 Z')" pointer-events="all" fill="none" stroke="#f37224" stroke-miterlimit="10" stroke-width="4"/><path class="st4_1523536124699" d="M628 502.5h49c2.6 0 4.7 2.1 4.7 4.7v3.1c0 2.6-2.1 4.7-4.7 4.7h-49c-2.6 0-4.7-2.1-4.7-4.7v-3.1c.1-2.6 2.2-4.7 4.7-4.7" vector-effect="non-scaling-stroke" style="height:auto;overflow-x:visible;overflow-y:visible;width:auto;perspective-origin:0 0;transform-origin:0 0;d:path('M 628 502.5 h 49 c 2.6 0 4.7 2.1 4.7 4.7 v 3.1 c 0 2.6 -2.1 4.7 -4.7 4.7 h -49 c -2.6 0 -4.7 -2.1 -4.7 -4.7 v -3.1 C 623.4 504.6 625.5 502.5 628 502.5')" pointer-events="all" fill="none" stroke="#f37224" stroke-miterlimit="10" stroke-width="4"/><path class="st4_1523536124699" d="M628 565.7c-2.6 0-4.7-2.1-4.7-4.7v-3.1c0-2.6 2.1-4.7 4.7-4.7h49c2.6 0 4.7 2.1 4.7 4.7v3.1c0 2.6-2.1 4.7-4.7 4.7h-49" vector-effect="non-scaling-stroke" style="height:auto;overflow-x:visible;overflow-y:visible;width:auto;perspective-origin:0 0;transform-origin:0 0;d:path('M 628 565.7 c -2.6 0 -4.7 -2.1 -4.7 -4.7 v -3.1 c 0 -2.6 2.1 -4.7 4.7 -4.7 h 49 c 2.6 0 4.7 2.1 4.7 4.7 v 3.1 c 0 2.6 -2.1 4.7 -4.7 4.7 H 628')" pointer-events="all" fill="none" stroke="#f37224" stroke-miterlimit="10" stroke-width="4"/><path class="st4_1523536124699" d="M765.1 466.8h-46.3c-3.3 0-6-2.7-6-6v-.5c0-3.3 2.7-6 6-6h46.3c3.3 0 6 2.7 6 6v.5c.1 3.2-2.6 6-6 6z" vector-effect="non-scaling-stroke" style="height:auto;overflow-x:visible;overflow-y:visible;width:auto;perspective-origin:0 0;transform-origin:0 0;d:path('M 765.1 466.8 h -46.3 c -3.3 0 -6 -2.7 -6 -6 v -0.5 c 0 -3.3 2.7 -6 6 -6 h 46.3 c 3.3 0 6 2.7 6 6 v 0.5 C 771.2 464 768.5 466.8 765.1 466.8 Z')" pointer-events="all" fill="none" stroke="#f37224" stroke-miterlimit="10" stroke-width="4"/><path class="st4_1523536124699" d="M765.1 515h-46.3c-3.3 0-6-2.7-6-6v-.5c0-3.3 2.7-6 6-6h46.3c3.3 0 6 2.7 6 6v.5c.1 3.3-2.6 6-6 6z" vector-effect="non-scaling-stroke" style="height:auto;overflow-x:visible;overflow-y:visible;width:auto;perspective-origin:0 0;transform-origin:0 0;d:path('M 765.1 515 h -46.3 c -3.3 0 -6 -2.7 -6 -6 v -0.5 c 0 -3.3 2.7 -6 6 -6 h 46.3 c 3.3 0 6 2.7 6 6 v 0.5 C 771.2 512.3 768.5 515 765.1 515 Z')" pointer-events="all" fill="none" stroke="#f37224" stroke-miterlimit="10" stroke-width="4"/><path class="st4_1523536124699" d="M639.9 858.8c-1.5.2-3.1.3-4.6.3H381.4c-18 0-32.7-14.7-32.7-32.7v-7.2c0-18 14.7-32.7 32.7-32.7h253.9c1.5 0 3 .1 4.4.3" vector-effect="non-scaling-stroke" style="height:auto;overflow-x:visible;overflow-y:visible;width:auto;perspective-origin:0 0;transform-origin:0 0;d:path('M 639.9 858.8 c -1.5 0.2 -3.1 0.3 -4.6 0.3 H 381.4 c -18 0 -32.7 -14.7 -32.7 -32.7 v -7.2 c 0 -18 14.7 -32.7 32.7 -32.7 h 253.9 c 1.5 0 3 0.1 4.4 0.3')" pointer-events="all" fill="none" stroke="#f37224" stroke-miterlimit="10" stroke-width="4"/><path class="st4_1523536124699" d="M765.1 565.7h-46.3c-3.3 0-6-2.7-6-6v-.5c0-3.3 2.7-6 6-6h46.3c3.3 0 6 2.7 6 6v.5c.1 3.3-2.6 6-6 6z" vector-effect="non-scaling-stroke" style="height:auto;overflow-x:visible;overflow-y:visible;width:auto;perspective-origin:0 0;transform-origin:0 0;d:path('M 765.1 565.7 h -46.3 c -3.3 0 -6 -2.7 -6 -6 v -0.5 c 0 -3.3 2.7 -6 6 -6 h 46.3 c 3.3 0 6 2.7 6 6 v 0.5 C 771.2 563 768.5 565.7 765.1 565.7 Z')" pointer-events="all" fill="none" stroke="#f37224" stroke-miterlimit="10" stroke-width="4"/><path class="st4_1523536124699" d="M641.2 786.4v-112c0-5.3 4.3-9.6 9.6-9.6h171" vector-effect="non-scaling-stroke" style="height:auto;overflow-x:visible;overflow-y:visible;width:auto;perspective-origin:0 0;transform-origin:0 0;d:path('M 641.2 786.4 v -112 c 0 -5.3 4.3 -9.6 9.6 -9.6 h 171')" pointer-events="all" fill="none" stroke="#f37224" stroke-miterlimit="10" stroke-width="4"/><path class="st4_1523536124699" vector-effect="non-scaling-stroke" style="height:auto;overflow-x:visible;overflow-y:visible;width:auto;perspective-origin:0 0;transform-origin:0 0" pointer-events="all" fill="none" stroke="#f37224" stroke-miterlimit="10" stroke-width="4" d="M641.2 856.6v-70.2"/><path class="st4_1523536124699" d="M821.8 664.8h10.6c5.3 0 9.6 4.3 9.6 9.6v182.2c0 5.3-4.3 9.6-9.6 9.6H650.9c-5.3 0-9.6-4.3-9.6-9.6" vector-effect="non-scaling-stroke" style="height:auto;overflow-x:visible;overflow-y:visible;width:auto;perspective-origin:0 0;transform-origin:0 0;d:path('M 821.8 664.8 h 10.6 c 5.3 0 9.6 4.3 9.6 9.6 v 182.2 c 0 5.3 -4.3 9.6 -9.6 9.6 H 650.9 c -5.3 0 -9.6 -4.3 -9.6 -9.6')" pointer-events="all" fill="none" stroke="#f37224" stroke-miterlimit="10" stroke-width="4"/><path class="st4_1523536124699" d="M803.6 864.7H682.2c-7.5 0-13.7-6.2-13.7-13.7V733.3c0-7.5 6.2-13.7 13.7-13.7h121.4c7.5 0 13.7 6.2 13.7 13.7V851c0 7.5-6.2 13.7-13.7 13.7z" vector-effect="non-scaling-stroke" style="height:auto;overflow-x:visible;overflow-y:visible;width:auto;perspective-origin:0 0;transform-origin:0 0;d:path('M 803.6 864.7 H 682.2 c -7.5 0 -13.7 -6.2 -13.7 -13.7 V 733.3 c 0 -7.5 6.2 -13.7 13.7 -13.7 h 121.4 c 7.5 0 13.7 6.2 13.7 13.7 V 851 C 817.3 858.5 811.1 864.7 803.6 864.7 Z')" pointer-events="all" fill="none" stroke="#f37224" stroke-miterlimit="10" stroke-width="4"/><path class="st4_1523536124699" d="M810.9 706.4H674.6c-3.4 0-6.1-2.8-6.1-6.1v-.5c0-3.4 2.8-6.1 6.1-6.1h136.3c3.4 0 6.1 2.8 6.1 6.1v.5c0 3.3-2.7 6.1-6.1 6.1z" vector-effect="non-scaling-stroke" style="height:auto;overflow-x:visible;overflow-y:visible;width:auto;perspective-origin:0 0;transform-origin:0 0;d:path('M 810.9 706.4 H 674.6 c -3.4 0 -6.1 -2.8 -6.1 -6.1 v -0.5 c 0 -3.4 2.8 -6.1 6.1 -6.1 h 136.3 c 3.4 0 6.1 2.8 6.1 6.1 v 0.5 C 817 703.6 814.3 706.4 810.9 706.4 Z')" pointer-events="all" fill="none" stroke="#f37224" stroke-miterlimit="10" stroke-width="4"/><path class="st6_1523536124699" d="M482.5 501.4H66.6c-3.4 0-6.1-2.8-6.1-6.1v-.5c0-3.4 2.8-6.1 6.1-6.1h415.9c3.4 0 6.1 2.8 6.1 6.1v.5c.1 3.3-2.7 6.1-6.1 6.1z" vector-effect="non-scaling-stroke" style="height:auto;overflow-x:visible;overflow-y:visible;width:auto;perspective-origin:0 0;transform-origin:0 0;d:path('M 482.5 501.4 H 66.6 c -3.4 0 -6.1 -2.8 -6.1 -6.1 v -0.5 c 0 -3.4 2.8 -6.1 6.1 -6.1 h 415.9 c 3.4 0 6.1 2.8 6.1 6.1 v 0.5 C 488.7 498.6 485.9 501.4 482.5 501.4 Z')" pointer-events="all" fill="#fff" stroke="#f37224" stroke-miterlimit="10" stroke-width="4"/><path class="st5_1523536124699" vector-effect="non-scaling-stroke" style="height:auto;overflow-x:visible;overflow-y:visible;width:auto;perspective-origin:0 0;transform-origin:0 0" pointer-events="all" clip-rule="evenodd" fill="none" fill-rule="evenodd" stroke="#f37224" stroke-miterlimit="10" stroke-width="4" d="M133.5 277v25.8M226.8 275.7v38.7M172.4 260.5h38M208.7 302.8v-24.1h-36.3"/><path class="st5_1523536124699" d="M264 260.5h38c6.9 0 15.6 1.7 16.4 11.6v30.7" vector-effect="non-scaling-stroke" style="height:auto;overflow-x:visible;overflow-y:visible;width:auto;perspective-origin:0 0;transform-origin:0 0;d:path('M 264 260.5 h 38 c 6.9 0 15.6 1.7 16.4 11.6 v 30.7')" pointer-events="all" clip-rule="evenodd" fill="none" fill-rule="evenodd" stroke="#f37224" stroke-miterlimit="10" stroke-width="4"/><path class="st5_1523536124699" vector-effect="non-scaling-stroke" style="height:auto;overflow-x:visible;overflow-y:visible;width:auto;perspective-origin:0 0;transform-origin:0 0" pointer-events="all" clip-rule="evenodd" fill="none" fill-rule="evenodd" stroke="#f37224" stroke-miterlimit="10" stroke-width="4" d="M300.3 302.8v-24.1H264M211.6 278.7h-80.9M270.9 278.7H224M270.9 260.5H116l-.6 19v32.3"/><path class="st5_1523536124699" d="M115.4 313.2h22.5c5.2 0 9.5 4.3 9.5 9.5s-4.3 9.5-9.5 9.5h-27.7c-5.2 0-9.5-4.3-9.5-9.5s4.3-9.5 9.5-9.5h5.2" vector-effect="non-scaling-stroke" style="height:auto;overflow-x:visible;overflow-y:visible;width:auto;perspective-origin:0 0;transform-origin:0 0;d:path('M 115.4 313.2 h 22.5 c 5.2 0 9.5 4.3 9.5 9.5 l 0 0 c 0 5.2 -4.3 9.5 -9.5 9.5 h -27.7 c -5.2 0 -9.5 -4.3 -9.5 -9.5 l 0 0 c 0 -5.2 4.3 -9.5 9.5 -9.5 H 115.4')" pointer-events="all" clip-rule="evenodd" fill="none" fill-rule="evenodd" stroke="#f37224" stroke-miterlimit="10" stroke-width="4"/><path class="st5_1523536124699" d="M232.4 332.2H204c-5 0-9.2-4.1-9.2-9.2v-.7c0-5 4.1-9.2 9.2-9.2h28.3c5 0 9.2 4.1 9.2 9.2v.7c0 5.1-4.1 9.2-9.1 9.2z" vector-effect="non-scaling-stroke" style="height:auto;overflow-x:visible;overflow-y:visible;width:auto;perspective-origin:0 0;transform-origin:0 0;d:path('M 232.4 332.2 H 204 c -5 0 -9.2 -4.1 -9.2 -9.2 v -0.7 c 0 -5 4.1 -9.2 9.2 -9.2 h 28.3 c 5 0 9.2 4.1 9.2 9.2 v 0.7 C 241.5 328.1 237.4 332.2 232.4 332.2 Z')" pointer-events="all" clip-rule="evenodd" fill="none" fill-rule="evenodd" stroke="#f37224" stroke-miterlimit="10" stroke-width="4"/><path class="st5_1523536124699" d="M323.1 332.2h-28.3c-5 0-9.2-4.1-9.2-9.2v-.7c0-5 4.1-9.2 9.2-9.2h28.3c5 0 9.2 4.1 9.2 9.2v.7c0 5.1-4.2 9.2-9.2 9.2z" vector-effect="non-scaling-stroke" style="height:auto;overflow-x:visible;overflow-y:visible;width:auto;perspective-origin:0 0;transform-origin:0 0;d:path('M 323.1 332.2 h -28.3 c -5 0 -9.2 -4.1 -9.2 -9.2 v -0.7 c 0 -5 4.1 -9.2 9.2 -9.2 h 28.3 c 5 0 9.2 4.1 9.2 9.2 v 0.7 C 332.3 328.1 328.1 332.2 323.1 332.2 Z')" pointer-events="all" clip-rule="evenodd" fill="none" fill-rule="evenodd" stroke="#f37224" stroke-miterlimit="10" stroke-width="4"/><path class="st6_1523536124699" d="M758 851.6h-27.1c-2.5 0-4.6-2.1-4.6-4.6v-.3c0-2.5 2.1-4.6 4.6-4.6H758c2.5 0 4.6 2.1 4.6 4.6v.3c0 2.5-2.1 4.6-4.6 4.6z" vector-effect="non-scaling-stroke" style="height:auto;overflow-x:visible;overflow-y:visible;width:auto;perspective-origin:0 0;transform-origin:0 0;d:path('M 758 851.6 h -27.1 c -2.5 0 -4.6 -2.1 -4.6 -4.6 v -0.3 c 0 -2.5 2.1 -4.6 4.6 -4.6 H 758 c 2.5 0 4.6 2.1 4.6 4.6 v 0.3 C 762.6 849.5 760.5 851.6 758 851.6 Z')" pointer-events="all" fill="#fff" stroke="#f37224" stroke-miterlimit="10" stroke-width="4"/><path class="st0_1523536124699" d="M1027.7 842.2c1.1-.5 2.4-.8 3.9-.8.7 0 1.3.1 1.9.2.4-.1.9-.1 1.3-.1.5 0 .9 0 1.3.1 1.4-3.8 2.3-7.8 2.3-12-114.5 28.2-159.6-47.2-170.8-230.7v230.7c0 3.5.5 6.9 1.5 10.1 4.9-.7 9.5.2 14.2.9.5-.1 1.1-.1 1.7-.1.8 0 1.6.1 2.4.3 1.7-.7 3.6-1.1 5.3-1.3 3.7-.4 7.8-.1 11.3.8.6-.1 1.1-.2 1.7-.2.7 0 1.4.1 2.1.2 3.4-.4 6.8-.8 10.2-.9 21.4-.8 42.8 1.8 64.1 1.9 1.2 0 2.4.2 3.4.6.5-.1 1-.1 1.5-.1.7 0 1.3.1 1.8.2h.1c.6-.1 1.2-.2 1.8-.2 1.1 0 2.1.2 3.1.5 1-.4 2.2-.7 3.5-.7 1.2 0 2.2.2 3.1.5.4-.1.8-.1 1.3-.1h.9c.9-.3 1.9-.5 3-.5.5 0 1 0 1.5.1.9-.3 1.8-.4 2.9-.4.8 0 1.5.1 2.2.3 1-.4 2.2-.7 3.6-.7 1.8 0 3.3.4 4.6 1.1 1-.4 2.1-.6 3.3-.6 1.2 0 2.3.2 3.3.6.2.3.4.3.7.3z" vector-effect="non-scaling-stroke" style="height:auto;overflow-x:visible;overflow-y:visible;width:auto;perspective-origin:0 0;transform-origin:0 0;d:path('M 1027.7 842.2 c 1.1 -0.5 2.4 -0.8 3.9 -0.8 c 0.7 0 1.3 0.1 1.9 0.2 c 0.4 -0.1 0.9 -0.1 1.3 -0.1 c 0.5 0 0.9 0 1.3 0.1 c 1.4 -3.8 2.3 -7.8 2.3 -12 c -114.5 28.2 -159.6 -47.2 -170.8 -230.7 v 230.7 c 0 3.5 0.5 6.9 1.5 10.1 c 4.9 -0.7 9.5 0.2 14.2 0.9 c 0.5 -0.1 1.1 -0.1 1.7 -0.1 c 0.8 0 1.6 0.1 2.4 0.3 c 1.7 -0.7 3.6 -1.1 5.3 -1.3 c 3.7 -0.4 7.8 -0.1 11.3 0.8 c 0.6 -0.1 1.1 -0.2 1.7 -0.2 c 0.7 0 1.4 0.1 2.1 0.2 c 3.4 -0.4 6.8 -0.8 10.2 -0.9 c 21.4 -0.8 42.8 1.8 64.1 1.9 c 1.2 0 2.4 0.2 3.4 0.6 c 0.5 -0.1 1 -0.1 1.5 -0.1 c 0.7 0 1.3 0.1 1.8 0.2 c 0 0 0 0 0.1 0 c 0.6 -0.1 1.2 -0.2 1.8 -0.2 c 1.1 0 2.1 0.2 3.1 0.5 c 1 -0.4 2.2 -0.7 3.5 -0.7 c 1.2 0 2.2 0.2 3.1 0.5 c 0.4 -0.1 0.8 -0.1 1.3 -0.1 c 0.3 0 0.6 0 0.9 0 c 0.9 -0.3 1.9 -0.5 3 -0.5 c 0.5 0 1 0 1.5 0.1 c 0.9 -0.3 1.8 -0.4 2.9 -0.4 c 0.8 0 1.5 0.1 2.2 0.3 c 1 -0.4 2.2 -0.7 3.6 -0.7 c 1.8 0 3.3 0.4 4.6 1.1 c 1 -0.4 2.1 -0.6 3.3 -0.6 c 1.2 0 2.3 0.2 3.3 0.6 C 1027.2 842.2 1027.4 842.2 1027.7 842.2 Z')" opacity=".22" pointer-events="all" fill="#989898"/><path class="st0_1523536124699" d="M1059.4 839.9c1.6.1 3 .3 4.4.4 6.2.2 12.4.6 18.6.9 17.1-1.1 34.1-3.1 51.2-2.7 22.1.6 44 2 66.1 1.9 1.4 0 2.6.2 3.7.7h.3c3.3-5.3 5.2-11.5 5.2-18-104.7 16.2-146-13.6-156.3-119v132.5c0 1.2.2 2.4.5 3.5 2.1-.3 4.1-.3 6.3-.2z" vector-effect="non-scaling-stroke" style="height:auto;overflow-x:visible;overflow-y:visible;width:auto;perspective-origin:0 0;transform-origin:0 0;d:path('M 1059.4 839.9 c 1.6 0.1 3 0.3 4.4 0.4 c 6.2 0.2 12.4 0.6 18.6 0.9 c 17.1 -1.1 34.1 -3.1 51.2 -2.7 c 22.1 0.6 44 2 66.1 1.9 c 1.4 0 2.6 0.2 3.7 0.7 c 0.1 0 0.2 0 0.3 0 c 3.3 -5.3 5.2 -11.5 5.2 -18 c -104.7 16.2 -146 -13.6 -156.3 -119 v 132.5 c 0 1.2 0.2 2.4 0.5 3.5 C 1055.2 839.8 1057.2 839.8 1059.4 839.9 Z')" opacity=".22" pointer-events="all" fill="#989898"/><path class="st4_1523536124699" d="M866.8 758.1V597.7c0-46.9 38.4-85.3 85.3-85.3s85.3 38.4 85.3 85.3v160.4" vector-effect="non-scaling-stroke" style="height:auto;overflow-x:visible;overflow-y:visible;width:auto;perspective-origin:0 0;transform-origin:0 0;d:path('M 866.8 758.1 V 597.7 c 0 -46.9 38.4 -85.3 85.3 -85.3 h 0 c 46.9 0 85.3 38.4 85.3 85.3 v 160.4')" pointer-events="all" fill="none" stroke="#f37224" stroke-miterlimit="10" stroke-width="4"/><path class="st4_1523536124699" vector-effect="non-scaling-stroke" style="height:auto;overflow-x:visible;overflow-y:visible;width:auto;perspective-origin:0 0;transform-origin:0 0" pointer-events="all" fill="none" stroke="#f37224" stroke-miterlimit="10" stroke-width="4" d="M866.8 826.8V633.5M1037.4 633.5v206.8M866.8 839.2v-68M1130.5 849.8"/><path class="st4_1523536124699" d="M1052.9 772.3v-68.6c0-42.7 34.9-77.6 77.6-77.6 42.7 0 77.6 34.9 77.6 77.6v68.6" vector-effect="non-scaling-stroke" style="height:auto;overflow-x:visible;overflow-y:visible;width:auto;perspective-origin:0 0;transform-origin:0 0;d:path('M 1052.9 772.3 v -68.6 c 0 -42.7 34.9 -77.6 77.6 -77.6 h 0 c 42.7 0 77.6 34.9 77.6 77.6 v 68.6')" pointer-events="all" fill="none" stroke="#f37224" stroke-miterlimit="10" stroke-width="4"/><path class="st4_1523536124699" vector-effect="non-scaling-stroke" style="height:auto;overflow-x:visible;overflow-y:visible;width:auto;perspective-origin:0 0;transform-origin:0 0" pointer-events="all" fill="none" stroke="#f37224" stroke-miterlimit="10" stroke-width="4" d="M1052.9 839.9v-95.8M1208 744.1V838"/><path class="st4_1523536124699" d="M1207 864.4H869.9c-6.2 0-11.2-5-11.2-11.2v-.8c0-6.2 5-11.2 11.2-11.2H1207c6.2 0 11.2 5 11.2 11.2v.8c0 6.2-5.1 11.2-11.2 11.2z" vector-effect="non-scaling-stroke" style="height:auto;overflow-x:visible;overflow-y:visible;width:auto;perspective-origin:0 0;transform-origin:0 0;d:path('M 1207 864.4 H 869.9 c -6.2 0 -11.2 -5 -11.2 -11.2 v -0.8 c 0 -6.2 5 -11.2 11.2 -11.2 H 1207 c 6.2 0 11.2 5 11.2 11.2 v 0.8 C 1218.2 859.4 1213.1 864.4 1207 864.4 Z')" pointer-events="all" fill="none" stroke="#f37224" stroke-miterlimit="10" stroke-width="4"/><path class="st4_1523536124699" d="M976.7 630.2c0-11.4 8.2-20.9 19-22.8a45.69 45.69 0 0 0-41.6-26.6c-25.3 0-45.7 20.5-45.7 45.7 0 25.3 20.5 45.7 45.7 45.7 15.8 0 29.7-8 37.9-20.2-8.9-3.1-15.3-11.7-15.3-21.8z" vector-effect="non-scaling-stroke" style="height:auto;overflow-x:visible;overflow-y:visible;width:auto;perspective-origin:0 0;transform-origin:0 0;d:path('M 976.7 630.2 c 0 -11.4 8.2 -20.9 19 -22.8 c -7.2 -15.7 -23.1 -26.6 -41.6 -26.6 c -25.3 0 -45.7 20.5 -45.7 45.7 c 0 25.3 20.5 45.7 45.7 45.7 c 15.8 0 29.7 -8 37.9 -20.2 C 983.1 648.9 976.7 640.3 976.7 630.2 Z')" fill="none" stroke="#f37224" stroke-miterlimit="10" stroke-width="4" pointer-events="all"/><path class="st4_1523536124699" d="M1151.4 716.3c0-9.8 7.1-18 16.4-19.7-6.2-13.5-19.9-22.9-35.8-22.9-21.8 0-39.4 17.6-39.4 39.4 0 21.8 17.6 39.4 39.4 39.4 13.6 0 25.6-6.9 32.7-17.4-7.8-2.7-13.3-10.1-13.3-18.8z" vector-effect="non-scaling-stroke" style="height:auto;overflow-x:visible;overflow-y:visible;width:auto;perspective-origin:0 0;transform-origin:0 0;d:path('M 1151.4 716.3 c 0 -9.8 7.1 -18 16.4 -19.7 c -6.2 -13.5 -19.9 -22.9 -35.8 -22.9 c -21.8 0 -39.4 17.6 -39.4 39.4 c 0 21.8 17.6 39.4 39.4 39.4 c 13.6 0 25.6 -6.9 32.7 -17.4 C 1156.9 732.4 1151.4 725 1151.4 716.3 Z')" fill="none" stroke="#f37224" stroke-miterlimit="10" stroke-width="4" pointer-events="all"/><circle class="st4_1523536124699" cx="558.1" cy="301.3" r="18.5" vector-effect="non-scaling-stroke" style="height:auto;overflow-x:visible;overflow-y:visible;width:auto;perspective-origin:0 0;transform-origin:0 0;cx:558.1px;cy:301.3px;r:18.5px" pointer-events="all" fill="none" stroke="#f37224" stroke-miterlimit="10" stroke-width="4"/><circle class="st4_1523536124699" cx="558.1" cy="355.5" r="18.5" vector-effect="non-scaling-stroke" style="height:auto;overflow-x:visible;overflow-y:visible;width:auto;perspective-origin:0 0;transform-origin:0 0;cx:558.1px;cy:355.5px;r:18.5px" pointer-events="all" fill="none" stroke="#f37224" stroke-miterlimit="10" stroke-width="4"/><circle class="st4_1523536124699" cx="558.1" cy="409.7" r="18.5" vector-effect="non-scaling-stroke" style="height:auto;overflow-x:visible;overflow-y:visible;width:auto;perspective-origin:0 0;transform-origin:0 0;cx:558.1px;cy:409.7px;r:18.5px" pointer-events="all" fill="none" stroke="#f37224" stroke-miterlimit="10" stroke-width="4"/><circle class="st4_1523536124699" cx="558.1" cy="463.8" r="18.5" vector-effect="non-scaling-stroke" style="height:auto;overflow-x:visible;overflow-y:visible;width:auto;perspective-origin:0 0;transform-origin:0 0;cx:558.1px;cy:463.8px;r:18.5px" pointer-events="all" fill="none" stroke="#f37224" stroke-miterlimit="10" stroke-width="4"/><circle class="st4_1523536124699" cx="558.1" cy="518" r="18.5" vector-effect="non-scaling-stroke" style="height:auto;overflow-x:visible;overflow-y:visible;width:auto;perspective-origin:0 0;transform-origin:0 0;cx:558.1px;cy:518px;r:18.5px" pointer-events="all" fill="none" stroke="#f37224" stroke-miterlimit="10" stroke-width="4"/><circle class="st4_1523536124699" cx="558.1" cy="572.1" r="18.5" vector-effect="non-scaling-stroke" style="height:auto;overflow-x:visible;overflow-y:visible;width:auto;perspective-origin:0 0;transform-origin:0 0;cx:558.1px;cy:572.1px;r:18.5px" pointer-events="all" fill="none" stroke="#f37224" stroke-miterlimit="10" stroke-width="4"/><path class="st6_1523536124699" d="M86 822.7h-1.5c-10.7 0-19.5-8.8-19.5-19.5V697.8c0-10.7 8.8-19.5 19.5-19.5H86c10.7 0 19.5 8.8 19.5 19.5v105.5c0 10.7-8.8 19.4-19.5 19.4z" vector-effect="non-scaling-stroke" style="height:auto;overflow-x:visible;overflow-y:visible;width:auto;perspective-origin:0 0;transform-origin:0 0;d:path('M 86 822.7 h -1.5 c -10.7 0 -19.5 -8.8 -19.5 -19.5 V 697.8 c 0 -10.7 8.8 -19.5 19.5 -19.5 H 86 c 10.7 0 19.5 8.8 19.5 19.5 v 105.5 C 105.5 814 96.7 822.7 86 822.7 Z')" pointer-events="all" fill="#fff" stroke="#f37224" stroke-miterlimit="10" stroke-width="4"/><path class="st6_1523536124699" d="M158.2 822.7h-1.5c-10.7 0-19.5-8.8-19.5-19.5V697.8c0-10.7 8.8-19.5 19.5-19.5h1.5c10.7 0 19.5 8.8 19.5 19.5v105.5c0 10.7-8.7 19.4-19.5 19.4z" vector-effect="non-scaling-stroke" style="height:auto;overflow-x:visible;overflow-y:visible;width:auto;perspective-origin:0 0;transform-origin:0 0;d:path('M 158.2 822.7 h -1.5 c -10.7 0 -19.5 -8.8 -19.5 -19.5 V 697.8 c 0 -10.7 8.8 -19.5 19.5 -19.5 h 1.5 c 10.7 0 19.5 8.8 19.5 19.5 v 105.5 C 177.7 814 169 822.7 158.2 822.7 Z')" pointer-events="all" fill="#fff" stroke="#f37224" stroke-miterlimit="10" stroke-width="4"/><path class="st6_1523536124699" d="M230.5 822.7H229c-10.7 0-19.5-8.8-19.5-19.5V697.8c0-10.7 8.8-19.5 19.5-19.5h1.5c10.7 0 19.5 8.8 19.5 19.5v105.5c0 10.7-8.8 19.4-19.5 19.4z" vector-effect="non-scaling-stroke" style="height:auto;overflow-x:visible;overflow-y:visible;width:auto;perspective-origin:0 0;transform-origin:0 0;d:path('M 230.5 822.7 H 229 c -10.7 0 -19.5 -8.8 -19.5 -19.5 V 697.8 c 0 -10.7 8.8 -19.5 19.5 -19.5 h 1.5 c 10.7 0 19.5 8.8 19.5 19.5 v 105.5 C 250 814 241.2 822.7 230.5 822.7 Z')" pointer-events="all" fill="#fff" stroke="#f37224" stroke-miterlimit="10" stroke-width="4"/><path class="st6_1523536124699" d="M302.7 822.7h-1.5c-10.7 0-19.5-8.8-19.5-19.5V697.8c0-10.7 8.8-19.5 19.5-19.5h1.5c10.7 0 19.5 8.8 19.5 19.5v105.5c0 10.7-8.8 19.4-19.5 19.4z" vector-effect="non-scaling-stroke" style="height:auto;overflow-x:visible;overflow-y:visible;width:auto;perspective-origin:0 0;transform-origin:0 0;d:path('M 302.7 822.7 h -1.5 c -10.7 0 -19.5 -8.8 -19.5 -19.5 V 697.8 c 0 -10.7 8.8 -19.5 19.5 -19.5 h 1.5 c 10.7 0 19.5 8.8 19.5 19.5 v 105.5 C 322.2 814 313.4 822.7 302.7 822.7 Z')" pointer-events="all" fill="#fff" stroke="#f37224" stroke-miterlimit="10" stroke-width="4"/><path class="st4_1523536124699" d="M354 802.5v-104c0-11.1 9.1-20.2 20.2-20.2s20.2 9.1 20.2 20.2v86.4" vector-effect="non-scaling-stroke" style="height:auto;overflow-x:visible;overflow-y:visible;width:auto;perspective-origin:0 0;transform-origin:0 0;d:path('M 354 802.5 v -104 c 0 -11.1 9.1 -20.2 20.2 -20.2 h 0 c 11.1 0 20.2 9.1 20.2 20.2 v 86.4')" pointer-events="all" fill="none" stroke="#f37224" stroke-miterlimit="10" stroke-width="4"/><path class="st5_1523536124699" vector-effect="non-scaling-stroke" style="height:auto;overflow-x:visible;overflow-y:visible;width:auto;perspective-origin:0 0;transform-origin:0 0" pointer-events="all" clip-rule="evenodd" fill="none" fill-rule="evenodd" stroke="#f37224" stroke-miterlimit="10" stroke-width="4" d="M1101.2 483.7h25.1V503"/><path class="st5_1523536124699" d="M1145.3 503v-21.1c0-6.9-1.7-15.6-12.1-16.4h-32" vector-effect="non-scaling-stroke" style="height:auto;overflow-x:visible;overflow-y:visible;width:auto;perspective-origin:0 0;transform-origin:0 0;d:path('M 1145.3 503 v -21.1 c 0 -6.9 -1.7 -15.6 -12.1 -16.4 h -32')" pointer-events="all" clip-rule="evenodd" fill="none" fill-rule="evenodd" stroke="#f37224" stroke-miterlimit="10" stroke-width="4"/><path class="st5_1523536124699" vector-effect="non-scaling-stroke" style="height:auto;overflow-x:visible;overflow-y:visible;width:auto;perspective-origin:0 0;transform-origin:0 0" pointer-events="all" clip-rule="evenodd" fill="none" fill-rule="evenodd" stroke="#f37224" stroke-miterlimit="10" stroke-width="4" d="M1126.3 503v122.9M1126.3 499.6v3.4M1145.3 503v-3.4M1145.3 626.7V503M1102.1 465.5H1007M1007 483.7h95.1M1036.4 465.5h-79.7M956.7 483.7h79.7M941.3 465.5v18.2M941.3 445.4v-53.1H606.2"/><path class="st5_1523536124699" d="M959.5 445.4v-54.9c0-6.9-1.7-15.6-11.6-16.4H606.2" vector-effect="non-scaling-stroke" style="height:auto;overflow-x:visible;overflow-y:visible;width:auto;perspective-origin:0 0;transform-origin:0 0;d:path('M 959.5 445.4 v -54.9 c 0 -6.9 -1.7 -15.6 -11.6 -16.4 h -30.7 H 834 H 698.4 h -92.2')" pointer-events="all" clip-rule="evenodd" fill="none" fill-rule="evenodd" stroke="#f37224" stroke-miterlimit="10" stroke-width="4"/><path class="st5_1523536124699" vector-effect="non-scaling-stroke" style="height:auto;overflow-x:visible;overflow-y:visible;width:auto;perspective-origin:0 0;transform-origin:0 0" pointer-events="all" clip-rule="evenodd" fill="none" fill-rule="evenodd" stroke="#f37224" stroke-miterlimit="10" stroke-width="4" d="M941.3 483.7v28M941.3 465.5v18.2M941.3 445.4v20.1M941.3 395.7v49.7M959.5 445.4v-49.7M959.5 465.5v-20.1M959.5 512.5v-28.8"/><path class="st6_1523536124699" d="M758 400.5h42.7c10.2 0 18.6-8.4 18.6-18.6 0-10.2-8.4-18.6-18.6-18.6H758c-10.2 0-18.6 8.4-18.6 18.6 0 10.2 8.4 18.6 18.6 18.6z" vector-effect="non-scaling-stroke" style="height:auto;overflow-x:visible;overflow-y:visible;width:auto;perspective-origin:0 0;transform-origin:0 0;d:path('M 758 400.5 h 42.7 c 10.2 0 18.6 -8.4 18.6 -18.6 v 0 c 0 -10.2 -8.4 -18.6 -18.6 -18.6 H 758 c -10.2 0 -18.6 8.4 -18.6 18.6 v 0 C 739.4 392.1 747.8 400.5 758 400.5 Z')" pointer-events="all" fill="#fff" stroke="#f37224" stroke-miterlimit="10" stroke-width="4"/><path class="st6_1523536124699" d="M1022.8 496.2h55.7c11.7 0 21.3-9.6 21.3-21.3 0-11.7-9.6-21.3-21.3-21.3h-55.7c-11.7 0-21.3 9.6-21.3 21.3 0 11.7 9.6 21.3 21.3 21.3z" vector-effect="non-scaling-stroke" style="height:auto;overflow-x:visible;overflow-y:visible;width:auto;perspective-origin:0 0;transform-origin:0 0;d:path('M 1022.8 496.2 h 55.7 c 11.7 0 21.3 -9.6 21.3 -21.3 v 0 c 0 -11.7 -9.6 -21.3 -21.3 -21.3 h -55.7 c -11.7 0 -21.3 9.6 -21.3 21.3 v 0 C 1001.5 486.6 1011.1 496.2 1022.8 496.2 Z')" pointer-events="all" fill="#fff" stroke="#f37224" stroke-miterlimit="10" stroke-width="4"/><path class="st6_1523536124699" d="M757.1 346.6h42.7c1.5 0 2.8-1.3 2.8-2.8 0-1.5-1.3-2.8-2.8-2.8h-42.7c-1.5 0-2.8 1.3-2.8 2.8 0 1.6 1.2 2.8 2.8 2.8z" vector-effect="non-scaling-stroke" style="height:auto;overflow-x:visible;overflow-y:visible;width:auto;perspective-origin:0 0;transform-origin:0 0;d:path('M 757.1 346.6 h 42.7 c 1.5 0 2.8 -1.3 2.8 -2.8 l 0 0 c 0 -1.5 -1.3 -2.8 -2.8 -2.8 h -42.7 c -1.5 0 -2.8 1.3 -2.8 2.8 l 0 0 C 754.3 345.4 755.5 346.6 757.1 346.6 Z')" pointer-events="all" fill="#fff" stroke="#f37224" stroke-miterlimit="10" stroke-width="4"/><path class="st6_1523536124699" d="M1028.4 436.8h42.7c1.5 0 2.8-1.3 2.8-2.8 0-1.5-1.3-2.8-2.8-2.8h-42.7c-1.5 0-2.8 1.3-2.8 2.8 0 1.5 1.2 2.8 2.8 2.8z" vector-effect="non-scaling-stroke" style="height:auto;overflow-x:visible;overflow-y:visible;width:auto;perspective-origin:0 0;transform-origin:0 0;d:path('M 1028.4 436.8 h 42.7 c 1.5 0 2.8 -1.3 2.8 -2.8 l 0 0 c 0 -1.5 -1.3 -2.8 -2.8 -2.8 h -42.7 c -1.5 0 -2.8 1.3 -2.8 2.8 l 0 0 C 1025.6 435.5 1026.8 436.8 1028.4 436.8 Z')" pointer-events="all" fill="#fff" stroke="#f37224" stroke-miterlimit="10" stroke-width="4"/></svg>