<svg preserveAspectRatio="none" viewBox="0 0 24 24" xmlns="http://www.w3.org/2000/svg" fill="#fff"><path xmlns:default="http://www.w3.org/2000/svg" d="M6.47 17.39v-7.22h2.41v7.23H6.47v-.01zm2.19-8.56c-.27.25-.63.38-1 .36-.37.03-.73-.11-1-.36-.24-.23-.38-.55-.37-.89-.01-.36.14-.71.42-.94.27-.24.63-.37 1-.35.37-.03.73.1 1 .35.24.24.38.56.37.9.01.36-.15.7-.42.93zm6.47 8.56v-3.86c0-1.09-.4-1.63-1.21-1.63-.28-.01-.55.08-.77.26-.2.17-.37.38-.47.62-.06.19-.08.38-.07.58v4H10.2v-7.23h2.4v1.05c.45-.76 1.28-1.21 2.16-1.18.75-.03 1.48.27 2 .82.55.68.82 1.55.76 2.43v4.14h-2.39zm4-12.51C18.57 4.3 17.8 3.99 17 4H7C5.34 4 4 5.34 4 7v10c0 1.66 1.34 3 3 3h10c1.66 0 3-1.34 3-3V7c.01-.8-.31-1.56-.87-2.12z" style="d:path('M 6.47 17.39 v -7.22 h 2.41 v 7.23 H 6.47 V 17.39 Z M 8.66 8.83 c -0.27 0.25 -0.63 0.38 -1 0.36 l 0 0 c -0.37 0.03 -0.73 -0.11 -1 -0.36 C 6.42 8.6 6.28 8.28 6.29 7.94 C 6.28 7.58 6.43 7.23 6.71 7 c 0.27 -0.24 0.63 -0.37 1 -0.35 c 0.37 -0.03 0.73 0.1 1 0.35 c 0.24 0.24 0.38 0.56 0.37 0.9 C 9.09 8.26 8.93 8.6 8.66 8.83 Z M 15.13 17.39 v -3.86 c 0 -1.09 -0.4 -1.63 -1.21 -1.63 c -0.28 -0.01 -0.55 0.08 -0.77 0.26 c -0.2 0.17 -0.37 0.38 -0.47 0.62 c -0.06 0.19 -0.08 0.38 -0.07 0.58 v 4 H 10.2 c 0 -4.36 0 -6.77 0 -7.23 h 2.4 v 1.05 l 0 0 c 0.45 -0.76 1.28 -1.21 2.16 -1.18 c 0.75 -0.03 1.48 0.27 2 0.82 c 0.55 0.68 0.82 1.55 0.76 2.43 v 4.14 H 15.13 L 15.13 17.39 Z M 19.13 4.88 C 18.57 4.3 17.8 3.99 17 4 H 7 C 5.34 4 4 5.34 4 7 v 10 c 0 1.66 1.34 3 3 3 h 10 c 1.66 0 3 -1.34 3 -3 V 7 C 20.01 6.2 19.69 5.44 19.13 4.88 L 19.13 4.88 Z')"/></svg>