<svg preserveAspectRatio="none" viewBox="0 0 126.39 49.46" class="ng-element" data-id="9f36f5c86cd043b9b26cbe752ab66ece" xmlns="http://www.w3.org/2000/svg"><defs><style>.cls-1_1523446768616{fill:#f37121}</style></defs><title>adc-logo</title><g id="Top_1523446768616"><path class="cls-1_1523446768616" d="M1787.23 91.57a6.31 6.31 0 0 1-4.32 1.76c-4.38 0-6-3.05-6-5.91a6.19 6.19 0 0 1 1.69-4.42 5.83 5.83 0 0 1 4.31-1.62 5.94 5.94 0 0 1 4.2 1.67l.45.44 2.86-2.74-.47-.47a9.88 9.88 0 0 0-7-2.91 10 10 0 0 0-7.3 2.79 10.72 10.72 0 0 0-.36 14.1 10.83 10.83 0 0 0 14.87.19l.46-.46-2.9-2.9z" transform="translate(-1733.36 -60.47)" vector-effect="non-scaling-stroke" style="height:auto;overflow-x:visible;overflow-y:visible;width:auto;perspective-origin:0 0;transform:matrix(1,0,0,1,-1733.36,-60.47);transform-origin:0 0;d:path('M 1787.23 91.57 a 6.31 6.31 0 0 1 -4.32 1.76 c -4.38 0 -6 -3.05 -6 -5.91 A 6.19 6.19 0 0 1 1778.6 83 a 5.83 5.83 0 0 1 4.31 -1.62 a 5.94 5.94 0 0 1 4.2 1.67 l 0.45 0.44 l 2.86 -2.74 l -0.47 -0.47 a 9.88 9.88 0 0 0 -7 -2.91 a 10 10 0 0 0 -7.3 2.79 a 10.72 10.72 0 0 0 -0.36 14.1 a 10.83 10.83 0 0 0 14.87 0.19 l 0.46 -0.46 l -2.9 -2.9 Z')" pointer-events="all" fill="#f37121"/><path class="cls-1_1523446768616" d="M1798.81 80.45a7.9 7.9 0 0 0-8.12 8.21 8.15 8.15 0 1 0 16.29 0 7.93 7.93 0 0 0-8.17-8.21zm0 3.39a4.57 4.57 0 0 1 4.51 4.82 4.5 4.5 0 1 1-9 0c.01-2.39 1.55-4.82 4.49-4.82z" transform="translate(-1733.36 -60.47)" vector-effect="non-scaling-stroke" style="height:auto;overflow-x:visible;overflow-y:visible;width:auto;perspective-origin:0 0;transform:matrix(1,0,0,1,-1733.36,-60.47);transform-origin:0 0;d:path('M 1798.81 80.45 a 7.9 7.9 0 0 0 -8.12 8.21 a 8.15 8.15 0 1 0 16.29 0 A 7.93 7.93 0 0 0 1798.81 80.45 Z m 0 3.39 a 4.57 4.57 0 0 1 4.51 4.82 a 4.5 4.5 0 1 1 -9 0 C 1794.33 86.27 1795.87 83.84 1798.81 83.84 Z')" pointer-events="all" fill="#f37121"/><path class="cls-1_1523446768616" d="M1816.32 80.45a7.9 7.9 0 0 0-8.12 8.21 8.15 8.15 0 1 0 16.29 0 7.93 7.93 0 0 0-8.17-8.21zm0 3.39a4.57 4.57 0 0 1 4.51 4.82 4.5 4.5 0 1 1-9 0c.01-2.39 1.55-4.82 4.49-4.82z" transform="translate(-1733.36 -60.47)" vector-effect="non-scaling-stroke" style="height:auto;overflow-x:visible;overflow-y:visible;width:auto;perspective-origin:0 0;transform:matrix(1,0,0,1,-1733.36,-60.47);transform-origin:0 0;d:path('M 1816.32 80.45 a 7.9 7.9 0 0 0 -8.12 8.21 a 8.15 8.15 0 1 0 16.29 0 A 7.93 7.93 0 0 0 1816.32 80.45 Z m 0 3.39 a 4.57 4.57 0 0 1 4.51 4.82 a 4.5 4.5 0 1 1 -9 0 C 1811.84 86.27 1813.38 83.84 1816.32 83.84 Z')" pointer-events="all" fill="#f37121"/><path class="cls-1_1523446768616" vector-effect="non-scaling-stroke" style="height:auto;overflow-x:visible;overflow-y:visible;width:auto;perspective-origin:0 0;transform-origin:0 0" pointer-events="all" fill="#f37121" d="M105.15 22.52v-.77h-4.09l-4.45 4.91V16.04h-3.75v20.24h3.75v-5.65l5.23 5.65h4.11v-.8l-6.54-6.87 5.74-6.09z"/><path class="cls-1_1523446768616" vector-effect="non-scaling-stroke" style="height:14.59px;overflow-x:visible;overflow-y:visible;width:3.72px;perspective-origin:0 0;transform-origin:0 0;x:106.42px;y:21.69px" pointer-events="all" fill="#f37121" d="M106.42 21.69h3.72v14.59h-3.72z"/><path class="cls-1_1523446768616" d="M1841.66 76.45a2.19 2.19 0 1 0 2.21 2.18 2.12 2.12 0 0 0-2.21-2.18z" transform="translate(-1733.36 -60.47)" vector-effect="non-scaling-stroke" style="height:auto;overflow-x:visible;overflow-y:visible;width:auto;perspective-origin:0 0;transform:matrix(1,0,0,1,-1733.36,-60.47);transform-origin:0 0;d:path('M 1841.66 76.45 a 2.19 2.19 0 1 0 2.21 2.18 A 2.12 2.12 0 0 0 1841.66 76.45 Z')" pointer-events="all" fill="#f37121"/><path class="cls-1_1523446768616" d="M1858 84.16a7.59 7.59 0 0 0-12.83 5.25c0 4.53 3 7.45 7.59 7.45a8.33 8.33 0 0 0 6-2.4l.14-.15-2.17-2.1-.15.17a5.54 5.54 0 0 1-3.8 1.4c-2.28 0-3.88-1.15-4.21-3h11v-.2c.43-2.73-.19-4.94-1.57-6.42zm-9.32 3.76a3.82 3.82 0 0 1 4-2.87c2.19 0 3.57 1 3.81 2.87h-7.78z" transform="translate(-1733.36 -60.47)" vector-effect="non-scaling-stroke" style="height:auto;overflow-x:visible;overflow-y:visible;width:auto;perspective-origin:0 0;transform:matrix(1,0,0,1,-1733.36,-60.47);transform-origin:0 0;d:path('M 1858 84.16 a 7.59 7.59 0 0 0 -12.83 5.25 c 0 4.53 3 7.45 7.59 7.45 a 8.33 8.33 0 0 0 6 -2.4 l 0.14 -0.15 l -2.17 -2.1 l -0.15 0.17 a 5.54 5.54 0 0 1 -3.8 1.4 c -2.28 0 -3.88 -1.15 -4.21 -3 h 11 l 0 -0.2 C 1860 87.85 1859.38 85.64 1858 84.16 Z m -9.32 3.76 a 3.82 3.82 0 0 1 4 -2.87 c 2.19 0 3.57 1 3.81 2.87 h -7.78 Z')" pointer-events="all" fill="#f37121"/><path class="cls-1_1523446768616" d="M1760.15 84.27a4 4 0 0 0-4.14 4.25 4 4 0 0 0 4.14 4.28 4.26 4.26 0 0 0 0-8.53z" transform="translate(-1733.36 -60.47)" vector-effect="non-scaling-stroke" style="height:auto;overflow-x:visible;overflow-y:visible;width:auto;perspective-origin:0 0;transform:matrix(1,0,0,1,-1733.36,-60.47);transform-origin:0 0;d:path('M 1760.15 84.27 a 4 4 0 0 0 -4.14 4.25 a 4 4 0 0 0 4.14 4.28 A 4.26 4.26 0 0 0 1760.15 84.27 Z')" pointer-events="all" fill="#f37121"/><path class="cls-1_1523446768616" d="M1744.69 84.19a4.34 4.34 0 0 0 0 8.68c5.66.01 5.66-8.68 0-8.68z" transform="translate(-1733.36 -60.47)" vector-effect="non-scaling-stroke" style="height:auto;overflow-x:visible;overflow-y:visible;width:auto;perspective-origin:0 0;transform:matrix(1,0,0,1,-1733.36,-60.47);transform-origin:0 0;d:path('M 1744.69 84.19 a 4.34 4.34 0 0 0 0 8.68 C 1750.35 92.88 1750.35 84.19 1744.69 84.19 Z')" pointer-events="all" fill="#f37121"/><path class="cls-1_1523446768616" d="M1770.26 87.2a12.56 12.56 0 0 1 10.29-12.35 24.73 24.73 0 1 0-2 24.18 12.56 12.56 0 0 1-8.29-11.83zm-18.59 7.88h-2.6l-.13-2.08a5.18 5.18 0 0 1-4.51 2.47c-3.82 0-6.72-2.44-6.72-6.91a6.42 6.42 0 0 1 6.77-6.83 5.06 5.06 0 0 1 4.46 2.36L1749 82h2.66v13.08zm15.56 0h-2.58l-.15-2.08a5.13 5.13 0 0 1-4.54 2.34c-3.8 0-6.69-2.5-6.69-6.83s2.84-6.83 6.64-6.83a5.5 5.5 0 0 1 4.59 2.32v-7.48h2.74v18.56z" transform="translate(-1733.36 -60.47)" vector-effect="non-scaling-stroke" style="height:auto;overflow-x:visible;overflow-y:visible;width:auto;perspective-origin:0 0;transform:matrix(1,0,0,1,-1733.36,-60.47);transform-origin:0 0;d:path('M 1770.26 87.2 a 12.56 12.56 0 0 1 10.29 -12.35 a 24.73 24.73 0 1 0 -2 24.18 A 12.56 12.56 0 0 1 1770.26 87.2 Z m -18.59 7.88 h -2.6 L 1748.94 93 a 5.18 5.18 0 0 1 -4.51 2.47 c -3.82 0 -6.72 -2.44 -6.72 -6.91 a 6.42 6.42 0 0 1 6.77 -6.83 a 5.06 5.06 0 0 1 4.46 2.36 L 1749 82 h 2.66 V 95.08 Z m 15.56 0 h -2.58 L 1764.5 93 a 5.13 5.13 0 0 1 -4.54 2.34 c -3.8 0 -6.69 -2.5 -6.69 -6.83 s 2.84 -6.83 6.64 -6.83 A 5.5 5.5 0 0 1 1764.5 84 V 76.52 h 2.74 V 95.08 Z')" pointer-events="all" fill="#f37121"/></g></svg>