<svg preserveAspectRatio="none" viewBox="0 0 24 24" class="ng-element" data-id="5a7b53e454a34c2da64353f9cc00a92f" xmlns="http://www.w3.org/2000/svg" fill="#fff"><path xmlns:default="http://www.w3.org/2000/svg" d="M17.33 9c-.29.44-.66.82-1.09 1.13v.28c.01 1.22-.34 2.41-1 3.44-.34.54-.76 1.04-1.24 1.46-.52.44-1.11.77-1.75 1-.7.25-1.44.38-2.19.37-1.19 0-2.35-.35-3.35-1 .17.01.35.01.52 0 .99.01 1.95-.33 2.72-.94-.46 0-.91-.16-1.27-.44-.36-.27-.64-.65-.78-1.08h.41c.18 0 .36-.03.53-.08-.5-.09-.95-.36-1.28-.75A2.05 2.05 0 0 1 7 11.07c.31.16.65.25 1 .27-.61-.41-.95-1.11-.9-1.84 0-.39.1-.77.3-1.1a6.249 6.249 0 0 0 4.52 2.29 2.07 2.07 0 0 1-.05-.5c0-1.21.97-2.18 2.18-2.19.61-.01 1.19.24 1.59.69.48-.1.94-.28 1.36-.53-.16.52-.52.96-1 1.22.46-.06.91-.19 1.33-.38zm1.79-4.14c-.56-.57-1.33-.88-2.12-.86H7C5.34 4 4 5.34 4 7v10c0 1.66 1.34 3 3 3h10c1.66 0 3-1.34 3-3V7a2.9 2.9 0 0 0-.88-2.12v-.02z" style="height:auto;overflow-x:visible;overflow-y:visible;width:auto;perspective-origin:0 0;transform-origin:0 0;d:path('M 17.33 9 c -0.29 0.44 -0.66 0.82 -1.09 1.13 c 0 0.09 0 0.19 0 0.28 c 0.01 1.22 -0.34 2.41 -1 3.44 c -0.34 0.54 -0.76 1.04 -1.24 1.46 c -0.52 0.44 -1.11 0.77 -1.75 1 c -0.7 0.25 -1.44 0.38 -2.19 0.37 c -1.19 0 -2.35 -0.35 -3.35 -1 c 0.17 0.01 0.35 0.01 0.52 0 c 0.99 0.01 1.95 -0.33 2.72 -0.94 c -0.46 0 -0.91 -0.16 -1.27 -0.44 c -0.36 -0.27 -0.64 -0.65 -0.78 -1.08 h 0.41 c 0.18 0 0.36 -0.03 0.53 -0.08 c -0.5 -0.09 -0.95 -0.36 -1.28 -0.75 C 7.22 12.03 7.02 11.56 7 11.07 l 0 0 c 0.31 0.16 0.65 0.25 1 0.27 c -0.61 -0.41 -0.95 -1.11 -0.9 -1.84 c 0 -0.39 0.1 -0.77 0.3 -1.1 c 1.12 1.37 2.76 2.2 4.52 2.29 c -0.04 -0.16 -0.05 -0.33 -0.05 -0.5 c 0 -1.21 0.97 -2.18 2.18 -2.19 c 0.61 -0.01 1.19 0.24 1.59 0.69 c 0.48 -0.1 0.94 -0.28 1.36 -0.53 c -0.16 0.52 -0.52 0.96 -1 1.22 C 16.46 9.32 16.91 9.19 17.33 9 L 17.33 9 Z M 19.12 4.86 C 18.56 4.29 17.79 3.98 17 4 H 7 C 5.34 4 4 5.34 4 7 v 10 c 0 1.66 1.34 3 3 3 h 10 c 1.66 0 3 -1.34 3 -3 V 7 c 0.01 -0.8 -0.31 -1.57 -0.88 -2.12 L 19.12 4.86 Z')" pointer-events="all"/></svg>